/* XPM */
static char * open_xpm[] = {
"32 32 412 2",
"  	c None",
". 	c #000000",
"+ 	c #222425",
"@ 	c #BFCDD2",
"# 	c #D3F2FF",
"$ 	c #D1E2E7",
"% 	c #A7B2B6",
"& 	c #D0F0FD",
"* 	c #C0E8FB",
"= 	c #B4D4E5",
"- 	c #D4E7F0",
"; 	c #161616",
"> 	c #787879",
", 	c #BABCBC",
"' 	c #71787A",
") 	c #D3EEFA",
"! 	c #C5ECFF",
"~ 	c #AFD3E4",
"{ 	c #B2CAD6",
"] 	c #B8CFDA",
"^ 	c #D1E5EE",
"/ 	c #636365",
"( 	c #A2A4A5",
"_ 	c #E8E9EB",
": 	c #ECECEE",
"< 	c #404345",
"[ 	c #D1E6EF",
"} 	c #C8EDFF",
"| 	c #B3D9ED",
"1 	c #B2CBD8",
"2 	c #B2C9D4",
"3 	c #ABC0CB",
"4 	c #8B9CA3",
"5 	c #9DA2A4",
"6 	c #F2F4F6",
"7 	c #CCCCCD",
"8 	c #BECDD2",
"9 	c #CBEFFF",
"0 	c #B9E2F5",
"a 	c #AECAD8",
"b 	c #B4CAD6",
"c 	c #ACC2CD",
"d 	c #96A8B1",
"e 	c #878E91",
"f 	c #D0D2D3",
"g 	c #8E8E8E",
"h 	c #868E91",
"i 	c #BFE7FA",
"j 	c #AECEDF",
"k 	c #B5CBD7",
"l 	c #AEC4CF",
"m 	c #9DB1BA",
"n 	c #828B92",
"o 	c #BABCBD",
"p 	c #F1F3F5",
"q 	c #F0F2F4",
"r 	c #EFF1F3",
"s 	c #252525",
"t 	c #D0E6EF",
"u 	c #C9EEFF",
"v 	c #C0E1F1",
"w 	c #D1E9F3",
"x 	c #B1BFC5",
"y 	c #D1EEFA",
"z 	c #B0C6D1",
"A 	c #A6BBC6",
"B 	c #7E8A8F",
"C 	c #A9ABAE",
"D 	c #EDEFF1",
"E 	c #E9EBED",
"F 	c #DFE0E3",
"G 	c #C6D7DD",
"H 	c #CAEEFF",
"I 	c #B6DCEF",
"J 	c #B4D1E0",
"K 	c #C0D8E4",
"L 	c #C3DAE6",
"M 	c #C5DEEB",
"N 	c #B7D7E8",
"O 	c #B2C8D3",
"P 	c #A9BFC9",
"Q 	c #86979E",
"R 	c #989C9D",
"S 	c #E9EAEC",
"T 	c #E3E5E7",
"U 	c #DCDEE0",
"V 	c #B4B5B5",
"W 	c #ADB4B6",
"X 	c #E8F8FD",
"Y 	c #AEB4B6",
"Z 	c #B4C1C5",
"` 	c #CFEFFD",
" .	c #BCE4F7",
"..	c #B1D1E1",
"+.	c #BED6E2",
"@.	c #BED5E1",
"#.	c #B9D0DC",
"$.	c #B3CAD5",
"%.	c #ACC1CC",
"&.	c #95A7B0",
"*.	c #82878A",
"=.	c #DDDEE0",
"-.	c #EEF0F2",
";.	c #D9DBDD",
">.	c #CFD1D2",
",.	c #9E9FA1",
"'.	c #9B9FA1",
").	c #E9F1F5",
"!.	c #E4F6FF",
"~.	c #D9F2FF",
"{.	c #D0EEFA",
"].	c #D1F1FF",
"^.	c #ADCFE1",
"/.	c #BBD4E1",
"(.	c #BDD5E0",
"_.	c #BAD1DD",
":.	c #9CB0B9",
"<.	c #7C868A",
"[.	c #C5C7C8",
"}.	c #EBEDEF",
"|.	c #E5E7E8",
"1.	c #AEAFB1",
"2.	c #6C6E70",
"3.	c #A6AAAC",
"4.	c #DEF5FF",
"5.	c #E8F7FF",
"6.	c #C9EDFF",
"7.	c #B4DDF0",
"8.	c #ABBBC0",
"9.	c #CCEFFF",
"0.	c #A6BECA",
"a.	c #BFD7E3",
"b.	c #BBD2DE",
"c.	c #B6CDD8",
"d.	c #AFC5D0",
"e.	c #798387",
"f.	c #B4B7B8",
"g.	c #ECEEF0",
"h.	c #E0E2E4",
"i.	c #D4D5D7",
"j.	c #C5C7C9",
"k.	c #6B6D6D",
"l.	c #8C9294",
"m.	c #DAEAF2",
"n.	c #DEF4FF",
"o.	c #C7ECFF",
"p.	c #AEDCF4",
"q.	c #9ECADF",
"r.	c #C2DDE9",
"s.	c #A5BDC8",
"t.	c #BCD4E0",
"u.	c #B8D0DB",
"v.	c #A9BEC8",
"w.	c #808E95",
"x.	c #A3A6A8",
"y.	c #E2E4E6",
"z.	c #D7D9DB",
"A.	c #CACCCD",
"B.	c #949696",
"C.	c #606466",
"D.	c #CBDCE3",
"E.	c #DBF3FF",
"F.	c #DFF4FF",
"G.	c #B3E1F9",
"H.	c #A9D7EF",
"I.	c #98C5DB",
"J.	c #B2D6E6",
"K.	c #575D5F",
"L.	c #CAEDFD",
"M.	c #A2BAC5",
"N.	c #B5CCD7",
"O.	c #ADC3CE",
"P.	c #A2B6C0",
"Q.	c #878F92",
"R.	c #EAECEE",
"S.	c #DBDDDF",
"T.	c #CED0D1",
"U.	c #ACACAE",
"V.	c #5A5C5D",
"W.	c #B8C3C7",
"X.	c #D8F2FF",
"Y.	c #D1EFFF",
"Z.	c #B8E6FE",
"`.	c #9DCBE3",
" +	c #8DBBD3",
".+	c #A0CEE6",
"++	c #A0C9DD",
"@+	c #A1AEB3",
"#+	c #C7E9F9",
"$+	c #9DB4BF",
"%+	c #AABFCA",
"&+	c #9DB0BA",
"*+	c #728187",
"=+	c #C7C8CA",
"-+	c #E7E9EA",
";+	c #DEE0E2",
">+	c #D3D4D6",
",+	c #B9BBBD",
"'+	c #727474",
")+	c #8B8E90",
"!+	c #EBF8FF",
"~+	c #D4F1FF",
"{+	c #BFE8FF",
"]+	c #ADDBF3",
"^+	c #9AC8E0",
"/+	c #91BFD7",
"(+	c #98C6DE",
"_+	c #9BC6DC",
":+	c #C1DAE3",
"<+	c #C3E5F4",
"[+	c #95ABB5",
"}+	c #9BAEB8",
"|+	c #8798A0",
"1+	c #51595D",
"2+	c #E1E3E5",
"3+	c #D6D8DA",
"4+	c #C8CACC",
"5+	c #808182",
"6+	c #777E7F",
"7+	c #D3DEE4",
"8+	c #D7F2FF",
"9+	c #CCEDFF",
"0+	c #B0DEF6",
"a+	c #9BC9E1",
"b+	c #95C3DB",
"c+	c #93C1D9",
"d+	c #96C3DA",
"e+	c #B4D7E6",
"f+	c #3D4143",
"g+	c #BDDDEC",
"h+	c #8B9FAA",
"i+	c #8A9BA4",
"j+	c #6F7D84",
"k+	c #777B7D",
"l+	c #E4E6E8",
"m+	c #DADCDE",
"n+	c #CDCFD0",
"o+	c #A1A2A3",
"p+	c #656768",
"q+	c #BDC4C7",
"r+	c #E1F5FF",
"s+	c #E2F5FF",
"t+	c #99C7DF",
"u+	c #97C5DD",
"v+	c #8FBDD5",
"w+	c #90BED6",
"x+	c #94C2D9",
"y+	c #9CC5D9",
"z+	c #919CA1",
"A+	c #B6D5E3",
"B+	c #82949E",
"C+	c #798890",
"D+	c #5A666B",
"E+	c #97999A",
"F+	c #D2D3D5",
"G+	c #B8B9BB",
"H+	c #6A6B6C",
"I+	c #959A9D",
"J+	c #F1FAFF",
"K+	c #E1F4FF",
"L+	c #C3EAFF",
"M+	c #B1DFF7",
"N+	c #A1CFE7",
"O+	c #9CCAE2",
"P+	c #84B2CA",
"Q+	c #8EBCD4",
"R+	c #9EC9DE",
"S+	c #B9D0DA",
"T+	c #AECCDA",
"U+	c #788992",
"V+	c #69777D",
"W+	c #383F44",
"X+	c #CDCED0",
"Y+	c #C7C9CB",
"Z+	c #757677",
"`+	c #808587",
" @	c #DAEAF1",
".@	c #CDEEFF",
"+@	c #A6D4EC",
"@@	c #8CBAD2",
"#@	c #85B3CB",
"$@	c #8BB9D1",
"%@	c #80AEC6",
"&@	c #81AFC7",
"*@	c #8EBAD0",
"=@	c #B6D8E6",
"-@	c #212324",
";@	c #A6C3D0",
">@	c #6F7F87",
",@	c #5D686E",
"'@	c #3E4445",
")@	c #A2A3A4",
"!@	c #606061",
"~@	c #C7D0D5",
"{@	c #E5F6FF",
"]@	c #E0F4FF",
"^@	c #A7D5ED",
"/@	c #A2D0E8",
"(@	c #9ECCE4",
"_@	c #86B4CC",
":@	c #8BB7CE",
"<@	c #98C1D5",
"[@	c #B7D4E1",
"}@	c #525A5C",
"|@	c #9EBAC6",
"1@	c #66747C",
"2@	c #525C61",
"3@	c #707275",
"4@	c #CCCECF",
"5@	c #ADAFB0",
"6@	c #323435",
"7@	c #ABCCDA",
"8@	c #DAF3FF",
"9@	c #C1E9FF",
"0@	c #A4D2EA",
"a@	c #92C0D8",
"b@	c #94C2DA",
"c@	c #86B3CA",
"d@	c #9BC5DA",
"e@	c #B1D3E3",
"f@	c #98A8AE",
"g@	c #96AFBB",
"h@	c #5E6B72",
"i@	c #454D52",
"j@	c #8F9192",
"k@	c #B3B5B6",
"l@	c #444545",
"m@	c #839CA6",
"n@	c #86B1C7",
"o@	c #8AB7CF",
"p@	c #8FBBD0",
"q@	c #9FC6D9",
"r@	c #ACC0C8",
"s@	c #8EA6B1",
"t@	c #566269",
"u@	c #2D3337",
"v@	c #ADAEB0",
"w@	c #696A6B",
"x@	c #5B666A",
"y@	c #8DB7CB",
"z@	c #82AFC7",
"A@	c #8EBBD3",
"B@	c #8CB8CF",
"C@	c #94BDD1",
"D@	c #C0D9E3",
"E@	c #555C5E",
"F@	c #869DA7",
"G@	c #4F5B61",
"H@	c #404447",
"I@	c #8E8F90",
"J@	c #333839",
"K@	c #93B8C9",
"L@	c #75A2B9",
"M@	c #89B7CF",
"N@	c #93BDD2",
"O@	c #B0D1DF",
"P@	c #8B999E",
"Q@	c #7F959F",
"R@	c #4C565C",
"S@	c #595B5D",
"T@	c #343535",
"U@	c #8DA8B4",
"V@	c #77A3B9",
"W@	c #87B4CC",
"X@	c #98C4D9",
"Y@	c #A0C7D9",
"Z@	c #A8B8BE",
"`@	c #7D929C",
" #	c #4D595E",
".#	c #484848",
"+#	c #78898F",
"@#	c #86B0C5",
"##	c #74A2B9",
"$#	c #88B6CE",
"%#	c #92BFD7",
"&#	c #92BED4",
"*#	c #A5CDE0",
"=#	c #BAD3DE",
"-#	c #8298A2",
";#	c #68787F",
">#	c #88AFC1",
",#	c #719EB5",
"'#	c #96C4DC",
")#	c #8CB9D0",
"!#	c #9CC6DA",
"~#	c #BADAE6",
"{#	c #687275",
"]#	c #8FA6B0",
"^#	c #67767D",
"/#	c #93B6C5",
"(#	c #6692A9",
"_#	c #79A7BF",
":#	c #92BFD6",
"<#	c #92BDD3",
"[#	c #A4C8D9",
"}#	c #A9B9BF",
"|#	c #A0ADB1",
"1#	c #A2BCC6",
"2#	c #739EB3",
"3#	c #5D8AA2",
"4#	c #88B4CA",
"5#	c #A3CBDD",
"6#	c #B2C7D0",
"7#	c #3C4142",
"8#	c #9EC6D6",
"9#	c #6491A7",
"0#	c #9FC8DC",
"a#	c #BAD7E3",
"b#	c #6A7376",
"c#	c #8B9EA5",
"d#	c #B3D5E3",
"e#	c #9EACB1",
"                                            . .                 ",
"                                        + @ # $ .     .         ",
"                                    . % & * = - . ; > , .       ",
"                                . ' ) ! ~ { ] ^ / ( _ : .       ",
"                              < [ } | 1 2 3 4 5 _ 6 6 7         ",
"                          + 8 9 0 a b c d e f 6 6 6 6 g         ",
"            . h % .   . % & i j k l m n o 6 6 6 p q r s         ",
"        . ' t u v w x y ! ~ { z A B C 6 6 6 p r D E F .   .     ",
"      < G H I J K L M N 1 O P Q R _ 6 6 p r D S T U V . W X Y   ",
"    Z `  ...K K +.@.#.$.%.&.*.=.6 6 6 q -.E T ;.>.,.'.).!.~.{.. ",
"  . ].^./.K +.(._.k l :.<.[.6 6 6 p r }.|.U f 1.2.3.4.5.6.7.8.  ",
"  . 9.0.a.@.b.c.d.A e.f.6 6 6 p r g._ h.i.j.k.l.m.n.o.p.q.r..   ",
"  . 9.s.t.u.O v.w.x._ 6 6 6 q D S y.z.A.B.C.D.E.F.G.H.I.J.K.    ",
"  . L.M.N.O.P.Q.=.6 6 6 p r R.|.S.T.U.V.W.X.Y.Z.`. +.+++@+.     ",
"  . #+$+%+&+*+=+6 6 p r g.-+;+>+,+'+)+!+~+{+]+^+/+(+_+:+.       ",
"  . <+[+}+|+1+6 6 q D S 2+3+4+5+6+7+8+9+0+a+b+(+c+d+e+f+        ",
"  . g+h+i+j+k+q -.R.l+m+n+o+p+q+r+s+Z.t+(+u+v+w+x+y+z+.         ",
"  . A+B+C+D+E+}.-+;+F+G+H+I+J+K+L+M+N+O+u+c+P+Q+R+S+.           ",
"  . T+U+V+W+X+y.3+Y+Z+`+ @r+.@0++@@@a+#@$@%@&@*@=@-@            ",
"  . ;@>@,@'@;+f )@!@~@{@]@G.^@/@(@/+_@v+c+:@<@[@}@.             ",
"  . |@1@2@3@4@5@6@7@8@9@0@a@/@t+b@$@%@c@d@e@f@. .               ",
"  . g@h@i@j@k@l@m@n@(+(@(+O+P+a@t+o@p@q@r@-@.                   ",
"  . s@t@u@v@w@x@y@z@t+u+v+ +@@A@B@C@D@E@.                       ",
"  . F@G@H@I@J@K@L@O+^+O+M@%@c@N@O@P@. .                         ",
"  . Q@R@S@T@U@V@M@a+b@t+W@X@Y@Z@-@.                             ",
"  . `@ #.#+#@###`.$#%#&#*#=#f+.                                 ",
"  . -#t@;#>#,#w+'#)#!#~#{#. .                                   ",
"  . ]#^#/#(#_#:#<#[#}#. .                                       ",
"  . |#1#2#3#4#5#6#7#.                                           ",
"    . 8#9#0#a#b#. .                                             ",
"    . c#d#e#. .                                                 ",
"      . . .                                                     "};
